<?xml version="1.0" encoding="UTF-8"?><svg id="Layer_2" xmlns="http://www.w3.org/2000/svg" viewBox="0 0 188.47 79.17"><defs><style>.cls-1{fill:#fff;}</style></defs><g id="Layer_1-2"><g><g><g><polygon class="cls-1" points="69.62 50.98 70.83 50.98 71.93 54.96 72.19 56.61 72.45 54.96 73.6 50.98 74.86 50.98 74.86 56.97 73.96 56.97 73.96 53.99 74.12 51.34 73.7 53.26 72.62 56.97 71.66 56.97 70.63 53.32 70.23 51.34 70.39 54 70.39 56.97 69.62 56.97 69.62 50.98"/><path class="cls-1" d="M78.44,52.88l-.22-1.19-.27,1.19-.71,2.28h1.88l-.68-2.28Zm-1.77,4.09h-.8l1.94-5.99h.9l1.9,5.99h-.96l-.35-1.19h-2.27l-.37,1.19"/><g><path class="cls-1" d="M84.62,50.98h.93v5.99h-.57l-.26-.59-.37,.51c-.1,.04-.24,.09-.43,.14-.19,.05-.41,.07-.66,.07-.29,0-.55-.04-.77-.13-.22-.09-.4-.22-.55-.41-.15-.19-.26-.44-.34-.74-.08-.3-.11-.66-.11-1.08v-3.75h.93v4.01c0,.28,.02,.52,.05,.7,.04,.18,.1,.33,.18,.43,.08,.1,.19,.18,.32,.22,.13,.04,.29,.06,.47,.06,.27,0,.5-.03,.68-.1,.18-.07,.34-.14,.49-.23v-5.09"/><path class="cls-1" d="M88.89,53.95c.41,0,.7-.08,.87-.25,.17-.17,.25-.45,.25-.85v-.14c0-.19-.02-.36-.06-.49-.04-.13-.11-.24-.2-.32-.09-.08-.21-.13-.35-.16-.14-.03-.32-.05-.53-.05h-.91v2.25h.92Zm1.14,.97l1.09,2.04h-.98l-1.24-2.39h-.94v2.39h-.93v-5.99h1.91c.69,0,1.2,.16,1.54,.47,.34,.32,.51,.76,.51,1.34,0,.2-.02,.39-.07,.57-.05,.19-.13,.36-.25,.51-.12,.16-.27,.29-.47,.4-.19,.11-.43,.18-.72,.22l.55,.43"/><rect class="cls-1" x="92.29" y="50.98" width=".93" height="5.99"/><polygon class="cls-1" points="94.25 51.73 94.25 50.98 98.27 50.98 98.27 51.73 96.72 51.73 96.72 56.97 95.79 56.97 95.79 51.73 94.25 51.73"/><rect class="cls-1" x="99.3" y="50.98" width=".93" height="5.99"/><path class="cls-1" d="M104.85,50.98h.93v5.99h-.57l-.26-.59-.37,.51c-.1,.04-.24,.09-.43,.14-.19,.05-.41,.07-.66,.07-.29,0-.55-.04-.77-.13-.22-.09-.4-.22-.55-.41-.15-.19-.26-.44-.34-.74-.08-.3-.11-.66-.11-1.08v-3.75h.93v4.01c0,.28,.02,.52,.05,.7,.04,.18,.1,.33,.18,.43,.08,.1,.19,.18,.32,.22,.13,.04,.29,.06,.47,.06,.28,0,.5-.03,.68-.1,.18-.07,.34-.14,.49-.23v-5.09"/><path class="cls-1" d="M108.73,57.1c-.44,0-.8-.04-1.08-.13-.28-.08-.51-.18-.71-.29l.17-.65c.26,.11,.5,.2,.72,.27,.22,.07,.48,.11,.77,.11,.4,0,.69-.07,.88-.2,.19-.13,.28-.39,.28-.77,0-.15-.02-.28-.05-.38-.03-.11-.09-.2-.17-.28-.08-.08-.2-.15-.34-.21-.14-.06-.33-.12-.56-.18-.27-.07-.51-.15-.71-.24-.21-.09-.38-.2-.52-.33-.14-.13-.24-.3-.31-.5-.07-.2-.11-.45-.11-.74,0-.55,.16-.97,.47-1.26,.32-.29,.77-.43,1.37-.43,.37,0,.67,.03,.91,.08,.24,.06,.45,.13,.65,.21l-.13,.7c-.12-.04-.23-.07-.33-.1-.1-.03-.21-.06-.31-.08-.1-.02-.22-.04-.34-.05-.12-.01-.26-.02-.42-.02-.36,0-.62,.06-.78,.19-.16,.13-.24,.35-.24,.68,0,.15,.01,.28,.04,.38,.03,.1,.08,.19,.16,.26,.08,.07,.19,.14,.34,.19,.14,.06,.33,.12,.57,.18,.26,.07,.5,.15,.71,.23,.21,.09,.39,.2,.53,.34,.15,.14,.26,.31,.34,.51,.08,.2,.12,.44,.12,.73,0,.59-.16,1.03-.49,1.33-.33,.3-.8,.45-1.43,.45"/><polyline class="cls-1" points="113.92 50.98 114.94 50.98 116.78 54.56 117.42 56.3 117.2 54.28 117.2 50.98 118.02 50.98 118.02 56.97 117.04 56.97 115.1 53.25 114.53 51.6 114.73 53.51 114.73 56.97 113.92 56.97 113.92 50.98"/><polyline class="cls-1" points="119.51 50.98 122.84 50.98 122.84 51.73 120.44 51.73 120.44 53.56 122.5 53.56 122.5 54.25 120.44 54.25 120.44 56.24 123.01 56.24 123.01 56.97 119.51 56.97 119.51 50.98"/><polyline class="cls-1" points="123.64 51.73 123.64 50.98 127.66 50.98 127.66 51.73 126.12 51.73 126.12 56.97 125.19 56.97 125.19 51.73 123.64 51.73"/><polygon class="cls-1" points="128.2 50.98 129.14 50.98 129.83 54.4 130.05 56.47 130.31 54.51 131.04 50.98 131.98 50.98 132.73 54.51 132.97 56.47 133.22 54.4 133.94 50.98 134.74 50.98 133.36 56.97 132.43 56.97 131.7 53.48 131.48 51.54 131.24 53.48 130.48 56.97 129.56 56.97 128.2 50.98"/><path class="cls-1" d="M137.63,56.41c.23,0,.44-.04,.61-.12,.17-.08,.32-.21,.44-.4,.12-.19,.2-.43,.26-.73,.06-.3,.09-.67,.09-1.11v-.31c0-.4-.03-.73-.09-1-.06-.27-.15-.49-.26-.66-.12-.17-.26-.29-.44-.37-.17-.07-.38-.11-.62-.11-.47,0-.82,.17-1.06,.5-.23,.33-.35,.89-.35,1.68v.3c0,.44,.03,.81,.09,1.11,.06,.3,.15,.54,.27,.72,.12,.18,.27,.31,.45,.39,.18,.08,.38,.11,.61,.11m-.02,.69c-.41,0-.77-.08-1.06-.23-.3-.15-.54-.37-.74-.65-.19-.28-.34-.61-.43-.99-.09-.38-.14-.8-.14-1.26s.05-.87,.14-1.25c.1-.38,.24-.7,.44-.97,.2-.27,.44-.49,.75-.64,.3-.15,.65-.23,1.06-.23s.76,.08,1.06,.23c.3,.15,.55,.36,.74,.63,.19,.27,.34,.59,.43,.97,.09,.38,.14,.79,.14,1.25,0,.48-.05,.91-.14,1.3-.1,.39-.24,.72-.43,.99-.19,.27-.44,.48-.74,.63-.3,.15-.66,.23-1.08,.23"/><path class="cls-1" d="M143.02,53.95c.41,0,.7-.08,.86-.25,.17-.17,.25-.45,.25-.85v-.14c0-.19-.02-.36-.06-.49-.04-.13-.11-.24-.2-.32-.09-.08-.21-.13-.35-.16-.14-.03-.32-.05-.53-.05h-.91v2.25h.92Zm1.14,.97l1.09,2.04h-.98l-1.24-2.39h-.94v2.39h-.93v-5.99h1.91c.69,0,1.2,.16,1.53,.47,.34,.32,.51,.76,.51,1.34,0,.2-.02,.39-.07,.57-.05,.19-.13,.36-.25,.51-.12,.16-.27,.29-.46,.4-.19,.11-.43,.18-.72,.22l.55,.43"/><polygon class="cls-1" points="149.48 50.98 150.45 50.98 148.24 53.73 148.92 54.25 150.51 56.97 149.49 56.97 147.82 54.1 147.29 54.82 147.29 56.97 146.36 56.97 146.36 50.98 147.29 50.98 147.29 52.91 147.13 54.03 149.48 50.98"/><path class="cls-1" d="M155.05,57.1c-.44,0-.8-.04-1.08-.13-.28-.08-.51-.18-.71-.29l.17-.65c.26,.11,.5,.2,.72,.27,.22,.07,.48,.11,.77,.11,.4,0,.69-.07,.88-.2,.19-.13,.28-.39,.28-.77,0-.15-.02-.28-.05-.38-.03-.11-.09-.2-.17-.28-.08-.08-.2-.15-.34-.21-.14-.06-.33-.12-.56-.18-.27-.07-.51-.15-.71-.24-.21-.09-.38-.2-.52-.33-.14-.13-.24-.3-.31-.5-.07-.2-.1-.45-.1-.74,0-.55,.16-.97,.47-1.26,.32-.29,.77-.43,1.37-.43,.37,0,.67,.03,.91,.08,.24,.06,.45,.13,.65,.21l-.13,.7c-.12-.04-.23-.07-.33-.1-.1-.03-.21-.06-.31-.08-.1-.02-.22-.04-.34-.05-.12-.01-.26-.02-.42-.02-.36,0-.62,.06-.78,.19-.16,.13-.24,.35-.24,.68,0,.15,.01,.28,.04,.38,.03,.1,.08,.19,.16,.26,.08,.07,.19,.14,.34,.19,.14,.06,.33,.12,.57,.18,.26,.07,.5,.15,.71,.23,.21,.09,.39,.2,.53,.34,.15,.14,.26,.31,.34,.51,.08,.2,.12,.44,.12,.73,0,.59-.16,1.03-.49,1.33-.33,.3-.8,.45-1.43,.45"/><polyline class="cls-1" points="158.13 50.98 161.47 50.98 161.47 51.73 159.06 51.73 159.06 53.56 161.13 53.56 161.13 54.25 159.06 54.25 159.06 56.24 161.64 56.24 161.64 56.97 158.13 56.97 158.13 50.98"/><path class="cls-1" d="M164.63,53.95c.41,0,.7-.08,.87-.25,.17-.17,.25-.45,.25-.85v-.14c0-.19-.02-.36-.06-.49-.04-.13-.11-.24-.2-.32-.09-.08-.21-.13-.35-.16-.14-.03-.32-.05-.53-.05h-.91v2.25h.92Zm1.14,.97l1.1,2.04h-.98l-1.24-2.39h-.94v2.39h-.93v-5.99h1.91c.69,0,1.2,.16,1.54,.47,.34,.32,.51,.76,.51,1.34,0,.2-.02,.39-.07,.57-.05,.19-.13,.36-.25,.51-.12,.16-.27,.29-.46,.4-.19,.11-.43,.18-.72,.22l.55,.43"/><polyline class="cls-1" points="167.4 50.98 168.36 50.98 169.55 54.95 169.81 56.39 170.08 54.95 171.27 50.98 172.13 50.98 170.21 56.97 169.34 56.97 167.4 50.98"/><rect class="cls-1" x="173.18" y="50.98" width=".93" height="5.99"/><path class="cls-1" d="M177.7,57.1c-.44,0-.8-.08-1.11-.24-.3-.16-.55-.38-.73-.66-.19-.28-.32-.61-.4-1-.08-.38-.12-.8-.12-1.24s.04-.85,.13-1.23c.09-.38,.23-.7,.42-.98,.19-.28,.44-.49,.74-.65,.31-.16,.67-.23,1.1-.23,.31,0,.58,.03,.81,.09,.23,.06,.45,.13,.66,.23l-.11,.73c-.14-.04-.27-.08-.39-.12-.12-.03-.23-.06-.34-.08-.11-.02-.22-.04-.33-.05-.11-.01-.23-.02-.36-.02-.19,0-.37,.03-.54,.09-.17,.06-.31,.17-.44,.34-.12,.16-.22,.38-.29,.66-.07,.28-.11,.62-.11,1.05v.29c0,.44,.03,.8,.1,1.09,.06,.29,.16,.53,.28,.71,.12,.18,.27,.31,.44,.38,.17,.08,.36,.11,.58,.11,.15,0,.28,0,.4-.03,.12-.02,.23-.04,.33-.07,.11-.03,.21-.07,.32-.11,.11-.04,.23-.09,.35-.14l.2,.7c-.21,.1-.45,.19-.71,.27-.26,.07-.56,.11-.89,.11"/><polyline class="cls-1" points="180.3 50.98 183.64 50.98 183.64 51.73 181.23 51.73 181.23 53.56 183.3 53.56 183.3 54.25 181.23 54.25 181.23 56.24 183.8 56.24 183.8 56.97 180.3 56.97 180.3 50.98"/><path class="cls-1" d="M186.4,57.1c-.44,0-.8-.04-1.08-.13-.28-.08-.51-.18-.71-.29l.17-.65c.26,.11,.5,.2,.72,.27,.22,.07,.48,.11,.77,.11,.4,0,.69-.07,.88-.2,.19-.13,.28-.39,.28-.77,0-.15-.02-.28-.05-.38-.03-.11-.09-.2-.17-.28-.08-.08-.2-.15-.34-.21-.14-.06-.33-.12-.56-.18-.27-.07-.51-.15-.71-.24-.21-.09-.38-.2-.52-.33-.14-.13-.24-.3-.31-.5-.07-.2-.11-.45-.11-.74,0-.55,.16-.97,.47-1.26,.32-.29,.77-.43,1.37-.43,.37,0,.67,.03,.91,.08,.24,.06,.45,.13,.65,.21l-.13,.7c-.12-.04-.23-.07-.33-.1-.1-.03-.21-.06-.31-.08-.1-.02-.22-.04-.34-.05-.12-.01-.26-.02-.42-.02-.36,0-.62,.06-.78,.19-.16,.13-.24,.35-.24,.68,0,.15,.01,.28,.04,.38,.03,.1,.08,.19,.16,.26,.08,.07,.19,.14,.34,.19,.14,.06,.33,.12,.57,.18,.27,.07,.5,.15,.71,.23,.21,.09,.39,.2,.53,.34,.15,.14,.26,.31,.34,.51,.08,.2,.12,.44,.12,.73,0,.59-.16,1.03-.49,1.33-.32,.3-.8,.45-1.43,.45"/><polyline class="cls-1" points="69.57 5.43 83.93 5.43 88.74 26.54 90.68 43.97 93.02 26.54 97.96 5.43 113.06 5.43 113.06 48.92 101.77 48.92 101.77 39.43 103.97 10.84 100.03 30.88 95.95 48.92 84.4 48.92 80.32 30.88 76.52 10.84 78.59 39.56 78.59 48.92 69.57 48.92 69.57 5.43"/><polyline class="cls-1" points="119.34 5.43 131.49 5.43 141.05 24.4 146.32 39.23 143.52 20.93 143.52 5.43 153.2 5.43 153.2 48.92 141.45 48.92 131.43 29.34 126.35 14.58 129.02 33.08 129.02 48.92 119.34 48.92 119.34 5.43"/><path class="cls-1" d="M172.18,49.85c-3.25,0-5.92-.31-8.02-.94-2.09-.62-3.96-1.31-5.61-2.07l1.8-8.02c1.87,.76,3.64,1.38,5.31,1.87,1.67,.49,3.48,.74,5.44,.74,2.45,0,4.18-.3,5.18-.9,1-.6,1.5-1.7,1.5-3.31,0-.76-.1-1.38-.3-1.87-.2-.49-.59-.9-1.17-1.24-.58-.33-1.36-.62-2.34-.87-.98-.24-2.25-.5-3.81-.77-1.78-.31-3.39-.76-4.81-1.34-1.43-.58-2.63-1.39-3.61-2.44-.98-1.05-1.73-2.38-2.24-4.01-.51-1.62-.77-3.62-.77-5.98,0-4.45,1.28-7.92,3.84-10.39,2.56-2.47,6.45-3.71,11.66-3.71,2.85,0,5.22,.19,7.11,.57,1.89,.38,3.55,.88,4.98,1.5l-1.07,8.48c-.85-.27-1.65-.5-2.4-.7-.76-.2-1.51-.37-2.27-.5-.76-.13-1.54-.23-2.34-.3-.8-.07-1.69-.1-2.67-.1-2.45,0-4.13,.28-5.04,.83-.91,.56-1.37,1.55-1.37,2.97,0,.71,.08,1.33,.23,1.84,.16,.51,.47,.95,.93,1.3,.47,.36,1.15,.66,2.04,.9,.89,.25,2.07,.48,3.54,.7,1.96,.31,3.72,.75,5.28,1.3,1.56,.56,2.87,1.34,3.94,2.34,1.07,1,1.89,2.28,2.47,3.84,.58,1.56,.87,3.47,.87,5.75s-.29,4.44-.87,6.25c-.58,1.8-1.53,3.32-2.84,4.54-1.31,1.23-3.01,2.15-5.08,2.77-2.07,.62-4.58,.94-7.52,.94"/></g></g><g><path class="cls-1" d="M58.57,22.9c-.18-.58-.38-1.14-.59-1.71l-.31,.74,.81,.82,.08,.14"/><path class="cls-1" d="M7.44,15.65h.08l-.09-.66-.2-.03c.07,.23,.13,.45,.21,.69"/><path class="cls-1" d="M37.09,54.26c-.74,.47-1.62,.74-2.56,.74-2.65,0-4.81-2.16-4.81-4.81,0-.18,.01-.36,.03-.54-.45-.32-.89-.65-1.34-.98l-.05,.06-1.06,3.9-.78,.18-.63-.63,.48-2.19-.08-1.33,1.03-.82c-.89-.7-1.78-1.43-2.66-2.18l.26,1.81-.29,.81-2.3,1.92,.18,2-3.01,4.33-3.72,.6-2.97-7.9,1.01-3.25-2.04-4.7,.18-2.52h-1.33l-1.06-1.08-4.91,1.03-3.62-3.87-.1-4.13,5.08-6.94,.65-.07c-.03-.06-.06-.12-.1-.18l-.52,.14-.47-.5h-.8l-.16-.83,.4-1.02-.14-1,.16-.08c-.12-.28-.23-.56-.34-.83-.31-.79-.59-1.57-.83-2.32C1.4,21.4,0,26.42,0,31.77c0,16.54,13.41,29.95,29.95,29.95,5.52,0,10.68-1.49,15.12-4.09-.85-.26-1.73-.56-2.63-.9-1.76-.67-3.55-1.5-5.36-2.47"/><path class="cls-1" d="M15.87,26.39l.93-1.28,3.45,.76,.47-.11,.52,.21,.6-.06,.63-1.57-.13-.82,.11-.18-.1-.15-.27,.19-.25-.11-.35,.36h-.42l-.78-.35-.07,.28-.31,.02-1-.44-.2-.77-.31-.38,.15-.49-.68-.17-.85,.39,.55,.71,.11,.43-.51-.05,.07,.59-.24-.03-.48-.56,.31-.25h-.36l-.68-.94,.03-.64-1.85-1.57-.54-.29-.43,.24,.03,.42,.53,.36,.16,.45,.49,.28,.29,.04v.06l-.08,.09,1.02,.6v.19h-.13l-.11-.16-.31-.11-.21,.3,.23,.19,.03,.23-.42,.47h-.14l-.02-.1h-.04l-.16,.36,.09,.18-.09,.15-.25-.03-.79-.47,.06-.16,.71,.03,.51-.11,.17-.28-.22-.51-1.3-.81-.79-1.05-.61-.23-.94,.67-.8-.24-.38,.2,.02,.53c.38,.78,.79,1.57,1.23,2.36l1.12-.12,.68,.72-.33,.99,3.6,1.57"/><path class="cls-1" d="M4.01,12.59c.06,.39,.13,.79,.22,1.19,.08,.4,.18,.81,.29,1.23,.11,.42,.23,.84,.36,1.27,.26,.86,.58,1.75,.94,2.66,2.81,7.08,8.21,14.79,15.2,21.71,2.92,2.89,5.97,5.5,9.06,7.75,.18-.45,.43-.87,.74-1.25-2.99-2.2-5.95-4.73-8.78-7.53-6.85-6.78-12.13-14.31-14.87-21.21-.58-1.47-1.03-2.86-1.35-4.18-.09-.38-.17-.75-.24-1.11-.11-.54-.19-1.07-.24-1.59-.38-3.42,.3-6.13,2.04-7.89,1.44-1.46,3.54-2.2,6.25-2.2,.21,0,.42,0,.63,.02,.09,0,.19,0,.28,.01,.1,0,.21,.01,.31,.02,.29,.02,.58,.05,.87,.09h0c.21,.03,.42,.06,.63,.09,.09,.01,.17,.03,.26,.04,.02,0,.05,0,.07,.01,1.52,.26,3.13,.7,4.82,1.32-5.87,1.73-10.98,5.2-14.75,9.82,.04,.2,.08,.4,.13,.61l.26-.25,.62-.06,.05,.14-.15,.27,.52,.1-.42,.63,.42,.24,.61,1.09,.48,.26-.2,.66-.38,.26-.78,.1c.05,.15,.11,.29,.16,.44l1.08-.29,.07-.39,.9-.32,.27-.69,1.31-.3,.08-.27-.22-.5,.16-.7,.66-.29,.06,.21-.1,.29,.17,.15-.22,.26,.17,.12v.19h-.29l.09,.23,.39,.25,.65-.19,.53,.18,1.25-.41,.18,.17,.28,.03,.16-.26,.35-.04-.02-.68,.42-.46,.39,.25h.26l.08-.48-.35-.14-.06-.27,.63-.18,.88,.04,.34-.16h.33l.06-.05-.21-.09h-.2l-.21-.18-.77,.07-1.01,.26-.52-.35-.19-.79,.1-.35,.35-.15,.5-.45,.27-.14-.08-.23-.84-.09-.39,.45v.2l-.31,.27-.59,.26-.35,.87,.59,.37,.02,.37-.65,.36-.18,1.01-.47,.02-.21,.28h-.4l-.1-.33,.08-.2-.45-.53-.31-.83-.17,.33-.81,.39h-.43l-.43-.5-.03-.84,.32-.52,1.26-.6,.89-.89,.73-.65,.14-.57,1.23-.53,2.36-.29,1.99,.55,2.28,.77,.14,.34-.44,.3-.86-.07-.76-.1-.72-.26,.81,.47,.08,.36,.48,.43,.54,.13,.18-.07-.09-.19h-.22l-.23-.19,.11-.11,.67,.24,.42-.06-.28-.32,.67-.42,.67,.24-.02-.4-.23-.13v-.35l-.28-.21,.07-.04,.72,.11,.28,.23-.32,.09-.07,.11,.5,.31,.36-.13-.03-.29,1.77-.57,.02,.29,.6-.17,.4,.13,.43-.21,.37,.31,.22-.26-.37-.31-.64-.23,.09-.13,.79,.28,.77,.08,1.63,.58,.24-.23-.89-.39-.3-.52,.36-.65,1.03,.04,.11,.48,.99,1.33,.33-.16-.57-.81-.49-.48,.25-.41,3.42-1.09,3.63-.65,3.1,.64-1.25,.83h4.87l3.36,1.09,.18-.06c-5.08-3.98-11.48-6.35-18.44-6.35-2.08,0-4.12,.21-6.08,.62-2.34-.99-4.56-1.69-6.62-2.08h0l-.24-.05c-.36-.06-.71-.12-1.06-.16h0c-.11-.01-.22-.03-.34-.04l-.27-.03h0c-.3-.03-.59-.05-.88-.06h-.01c-.29-.02-.58-.02-.86-.02-3.11,0-5.55,.88-7.28,2.62-1.81,1.83-2.66,4.46-2.54,7.71,.03,.72,.1,1.47,.22,2.25"/><path class="cls-1" d="M52.2,43.25l-.57,.19-1.16-1.11-1.13-2.35-1.57-1.81,1.08,.09,.19,.45,1.66,1.31,.74,.69-.09,.36,.99,1.06-.15,1.12Zm9.01,8.26s.03-.09,.04-.14c.05-.17,.1-.34,.14-.51,.02-.09,.04-.18,.06-.27,.02-.08,.03-.16,.05-.25,.04-.22,.08-.43,.11-.66h0c.1-.74,.14-1.52,.12-2.34h0c-.01-.49-.05-.98-.11-1.5h0s0-.05,0-.08h0c-.03-.24-.06-.48-.1-.72h0l-.04-.25h0c-.15-.91-.36-1.85-.63-2.82-.02-.07-.04-.14-.06-.21-.05-.17-.1-.34-.15-.51-.04-.13-.08-.27-.13-.41-.05-.14-.09-.29-.14-.43-.06-.18-.13-.36-.19-.55-.04-.11-.08-.23-.12-.34-.11-.3-.23-.61-.35-.92-.12-.31-.25-.61-.38-.92,.38-1.91,.58-3.89,.58-5.91,0-2.63-.34-5.17-.97-7.6l-.75,.26-.51-1.52-.6-.13-.37-.75-.84-.09-.28,.24-.38-.31-.08-.49-.48,.04-.87,.97,.9,.68,.7-.19,.91,.26-.92,1.09,1.71,1.66-.11,2.38-1.64,1.81-1.94,.58h-1.16l-.68,.81,1.41,1.79,.55,1.99-1.76,1.31-.23-.83-1.58-1.43-.33,.08-.07,1.96,.83,1.18,.93,.88,.38,1.86-1.28-.91-.45-1.48-.91-1.16v-1.74l-.75-2.44-.75,.73-.43-.18-.33-1.46-1.38-1.56-1.63,.7-2.59,2.69,.18,1.66-.86,1.76-.43-.08-1.81-4.33-.35-2.37-.78,.75-2.04-2.21-2.52,.05-1.51-.85-.86,.15-1.99-1.48-.88,.13,1.38,2.34,.23-.7,.15,.1,.05,.91,.93-.05,1.01-.93,.55,1.21,.98,.63-.8,1.74-2.14,1.51-2.89,1.26h-.78l-.3-1.31-.78-1.99-2.49-3.85-.19-.09v-.65l-.13,.3-.03,.45-.09,.06-.4-.4-.31-.64-.07,.27,4.93,8.9,3.32-.7-1.52,3.81-2.17,2.67c1.96,1.76,3.96,3.38,5.96,4.85,.8-.58,1.77-.93,2.84-.93,2.65,0,4.81,2.16,4.81,4.81,0,.3-.03,.59-.08,.87,1.54,.81,3.07,1.51,4.57,2.08,1.95,.75,3.76,1.26,5.42,1.54,4.47-3.77,7.82-8.81,9.48-14.58,.01,.03,.02,.06,.03,.09,.09,.25,.18,.5,.26,.75,.03,.1,.06,.19,.09,.29,.06,.19,.12,.38,.18,.57,.05,.17,.1,.34,.15,.5,.04,.14,.08,.28,.12,.41,.04,.16,.08,.31,.12,.47,.02,.06,.03,.13,.05,.19,.13,.56,.25,1.1,.33,1.63h0l.04,.24c.14,.95,.21,1.85,.2,2.7-.03,2.54-.75,4.57-2.13,5.96-1.45,1.46-3.55,2.21-6.24,2.21-2.46,0-5.33-.62-8.53-1.85-1.48-.57-2.98-1.25-4.51-2.04-.21,.44-.48,.85-.81,1.21,1.62,.85,3.23,1.58,4.8,2.18,3.35,1.29,6.39,1.94,9.04,1.94,3.1,0,5.54-.89,7.27-2.63h0c.12-.12,.23-.24,.34-.37,.04-.04,.07-.08,.11-.13,.08-.09,.15-.18,.22-.28,.05-.07,.1-.14,.15-.2,.07-.09,.13-.19,.19-.29,.06-.09,.11-.18,.16-.27,.02-.04,.04-.08,.07-.12,.19-.33,.36-.68,.51-1.04h.01l.06-.16h0c.07-.18,.14-.37,.2-.56"/><path class="cls-1" d="M33.71,50.03c-.73,0-1.32-.59-1.32-1.33s.59-1.32,1.32-1.32,1.32,.59,1.32,1.32-.59,1.33-1.32,1.33m.82-3.57c-2.06,0-3.73,1.67-3.73,3.73s1.67,3.73,3.73,3.73,3.73-1.67,3.73-3.73-1.67-3.73-3.73-3.73"/></g></g><g><path class="cls-1" d="M1.02,68.04H3.9c1.27,0,2.21,.37,2.82,1.12,.61,.75,.92,1.82,.92,3.21s-.32,2.52-.96,3.26c-.64,.74-1.61,1.11-2.91,1.11H1.02v-8.7Zm2.71,7.41c.35,0,.67-.04,.93-.11,.27-.07,.49-.21,.67-.42,.18-.21,.31-.5,.4-.88,.09-.37,.13-.86,.13-1.47v-.52c0-.55-.04-1-.13-1.34-.09-.34-.22-.61-.4-.81-.18-.2-.4-.33-.67-.4-.27-.07-.59-.11-.95-.11h-.97v6.06h1Z"/><path class="cls-1" d="M9.97,68.71c-.26,0-.48-.08-.66-.23-.18-.16-.27-.38-.27-.66s.09-.49,.27-.66c.18-.16,.4-.24,.66-.24s.47,.08,.65,.24c.18,.16,.27,.38,.27,.66s-.09,.51-.27,.66c-.18,.16-.4,.23-.65,.23Zm-.79,.99h1.56v7.04h-1.56v-7.04Z"/><path class="cls-1" d="M18.18,69.34v1.31h-1.58l.92,.56c.04,.09,.06,.18,.08,.28,.02,.1,.03,.22,.03,.37,0,.44-.07,.8-.21,1.1-.14,.3-.34,.54-.58,.72-.25,.18-.53,.31-.86,.39-.33,.08-.67,.12-1.02,.12-.44,0-.83-.06-1.18-.19-.07,.06-.14,.14-.19,.23-.06,.09-.09,.2-.09,.32,0,.2,.06,.34,.19,.44,.12,.1,.33,.15,.61,.15h1.56c.72,0,1.27,.14,1.64,.43,.37,.29,.56,.74,.56,1.38,0,.41-.09,.76-.26,1.04-.17,.29-.41,.51-.7,.69-.29,.17-.64,.3-1.03,.38-.39,.08-.8,.12-1.23,.12-.9,0-1.58-.15-2.03-.44s-.68-.71-.68-1.24c0-.24,.04-.43,.11-.57,.07-.14,.14-.25,.2-.33l.74-.35c-.26-.08-.47-.21-.63-.4-.16-.19-.24-.44-.24-.76,0-.2,.03-.38,.08-.53,.05-.15,.12-.27,.19-.37l.82-.48-.82-.51c-.1-.18-.18-.37-.23-.57-.06-.2-.09-.45-.09-.72,0-.44,.08-.8,.23-1.1,.16-.3,.36-.54,.61-.72,.25-.18,.54-.31,.86-.39,.32-.08,.65-.12,.99-.12,.6,0,1.1,.12,1.51,.35l1.71-.56Zm-4.63,7.4c-.06,.14-.09,.3-.09,.48,0,.31,.11,.53,.32,.66,.21,.13,.58,.2,1.11,.2,.59,0,1.02-.09,1.31-.28,.29-.18,.43-.41,.43-.68v-.12c0-.18-.06-.33-.17-.46-.12-.13-.34-.19-.68-.19h-1.98c-.1,.12-.18,.24-.24,.38Zm1.41-3.54c.39,0,.68-.09,.86-.27,.18-.18,.27-.49,.27-.91v-.23c0-.4-.09-.68-.27-.85-.18-.17-.47-.25-.86-.25s-.69,.08-.87,.25c-.18,.16-.27,.44-.27,.83v.24c0,.43,.09,.74,.27,.92s.47,.27,.87,.27Z"/><path class="cls-1" d="M20.09,68.71c-.26,0-.48-.08-.66-.23-.18-.16-.27-.38-.27-.66s.09-.49,.27-.66c.18-.16,.4-.24,.66-.24s.47,.08,.65,.24c.18,.16,.27,.38,.27,.66s-.09,.51-.27,.66c-.18,.16-.4,.23-.65,.23Zm-.79,.99h1.56v7.04h-1.56v-7.04Z"/><path class="cls-1" d="M24.73,76.9c-.62,0-1.08-.17-1.36-.52-.29-.35-.43-.87-.43-1.56v-4.02h-.82v-1.1h.94l.75-1.91h.7v1.91h1.51v1.1h-1.51v4.38c0,.23,.05,.39,.14,.47,.09,.08,.27,.12,.53,.12h.96l.08,.84c-.15,.07-.36,.14-.61,.2-.26,.06-.55,.09-.87,.09Z"/><path class="cls-1" d="M30.68,71.85c0-.29-.07-.52-.21-.7-.14-.18-.4-.27-.8-.27-.31,0-.64,.04-.99,.13-.35,.08-.73,.2-1.15,.34l-.21-1.18c.29-.14,.65-.28,1.08-.41,.42-.13,.9-.2,1.42-.2,.44,0,.81,.05,1.11,.15,.3,.1,.55,.27,.75,.49,.19,.23,.33,.52,.42,.88s.13,.8,.13,1.32v3.09c0,.17,.03,.28,.1,.33s.17,.08,.3,.08h.32l.03,.7c-.07,.07-.18,.14-.33,.21-.15,.07-.35,.1-.59,.1s-.49-.04-.73-.11l-.58-.79-.53,.67c-.13,.06-.3,.12-.5,.17-.2,.05-.44,.08-.73,.08-.26,0-.5-.04-.74-.11-.24-.07-.44-.19-.63-.35s-.33-.37-.43-.62c-.11-.25-.16-.57-.16-.94s.05-.69,.15-.94c.1-.25,.25-.47,.46-.64,.21-.17,.48-.31,.81-.42,.33-.11,.73-.19,1.2-.25l1.03-.13v-.67Zm0,1.56l-.92,.13c-.44,.06-.76,.18-.95,.34-.19,.16-.29,.45-.29,.85v.11c0,.37,.09,.63,.27,.79,.18,.16,.44,.24,.78,.24,.28,0,.51-.04,.68-.13,.17-.09,.31-.2,.43-.32v-2.01Z"/><path class="cls-1" d="M34.28,67.14h1.56v9.6h-1.56v-9.6Z"/><path class="cls-1" d="M40.18,69.4v-1.36h6.1v1.36h-2.19v7.34h-1.71v-7.34h-2.19Z"/><path class="cls-1" d="M49.42,69.76c.15-.07,.3-.12,.45-.16,.15-.04,.32-.05,.51-.05,.21,0,.39,.02,.53,.07,.14,.05,.25,.1,.32,.15l-.27,1.4c-.12-.05-.26-.1-.41-.13-.15-.03-.34-.05-.57-.05s-.46,.04-.67,.11c-.21,.07-.41,.16-.6,.25v5.37h-1.56v-7.04h1.03l.51,1.02,.74-.95Z"/><path class="cls-1" d="M55.44,71.85c0-.29-.07-.52-.21-.7-.14-.18-.4-.27-.8-.27-.31,0-.64,.04-.99,.13-.35,.08-.73,.2-1.15,.34l-.21-1.18c.29-.14,.65-.28,1.08-.41,.42-.13,.9-.2,1.42-.2,.44,0,.81,.05,1.11,.15,.3,.1,.55,.27,.75,.49,.19,.23,.33,.52,.42,.88s.13,.8,.13,1.32v3.09c0,.17,.03,.28,.1,.33s.17,.08,.3,.08h.32l.03,.7c-.07,.07-.18,.14-.33,.21-.15,.07-.35,.1-.59,.1s-.49-.04-.73-.11l-.58-.79-.53,.67c-.13,.06-.3,.12-.5,.17-.2,.05-.44,.08-.73,.08-.26,0-.5-.04-.74-.11-.24-.07-.44-.19-.63-.35s-.33-.37-.43-.62c-.11-.25-.16-.57-.16-.94s.05-.69,.15-.94c.1-.25,.25-.47,.46-.64,.21-.17,.48-.31,.81-.42,.33-.11,.73-.19,1.2-.25l1.03-.13v-.67Zm0,1.56l-.92,.13c-.44,.06-.76,.18-.95,.34-.19,.16-.29,.45-.29,.85v.11c0,.37,.09,.63,.27,.79,.18,.16,.44,.24,.78,.24,.28,0,.51-.04,.68-.13,.17-.09,.31-.2,.43-.32v-2.01Z"/><path class="cls-1" d="M61.2,69.82c.15-.07,.33-.14,.53-.19,.2-.05,.42-.08,.66-.08,.61,0,1.09,.19,1.42,.56,.33,.37,.49,.94,.49,1.71v4.92h-1.56v-5.07c0-.31-.08-.53-.23-.66-.16-.13-.38-.19-.66-.19-.26,0-.49,.04-.68,.11-.2,.07-.41,.17-.64,.29v5.52h-1.56v-7.04h1.03l.51,.93,.71-.81Z"/><path class="cls-1" d="M67.82,76.93c-.51,0-.93-.05-1.28-.15-.34-.1-.62-.2-.82-.31l.16-1.11c.23,.1,.49,.19,.78,.27,.29,.08,.61,.13,.97,.13,.43,0,.74-.07,.95-.21,.2-.14,.31-.38,.31-.72,0-.18-.02-.32-.07-.41-.05-.1-.13-.18-.25-.25-.12-.07-.27-.12-.47-.17-.2-.05-.45-.11-.76-.19-.25-.06-.48-.14-.68-.24-.21-.1-.38-.23-.53-.39-.15-.16-.27-.36-.35-.6-.08-.24-.13-.53-.13-.87,0-.75,.22-1.3,.68-1.64,.45-.35,1.05-.52,1.8-.52,.45,0,.85,.04,1.18,.13,.33,.09,.6,.18,.81,.29l-.23,1.15c-.27-.09-.53-.16-.78-.21-.25-.05-.53-.08-.84-.08-.43,0-.73,.06-.92,.17-.18,.11-.27,.33-.27,.66,0,.16,.02,.29,.07,.39,.05,.1,.13,.18,.25,.24,.12,.06,.27,.12,.45,.17,.19,.05,.42,.11,.7,.18,.29,.07,.56,.16,.79,.26,.23,.1,.42,.24,.57,.4,.15,.16,.27,.37,.35,.61,.08,.24,.12,.53,.12,.87,0,.66-.21,1.18-.63,1.58-.42,.4-1.06,.59-1.93,.59Z"/><path class="cls-1" d="M71.1,70.79v-1.1h.83v-.53c0-1.44,.62-2.17,1.87-2.17,.32,0,.61,.04,.86,.11,.25,.07,.45,.14,.59,.21l-.08,.9h-.99c-.25,0-.43,.04-.53,.13-.1,.09-.15,.24-.15,.45v.9h1.52v1.1h-1.52v5.95h-1.56v-5.95h-.83Z"/><path class="cls-1" d="M78.62,76.93c-.94,0-1.66-.32-2.17-.96-.51-.64-.77-1.55-.77-2.73s.26-2.11,.78-2.74c.52-.63,1.24-.95,2.16-.95s1.63,.31,2.15,.94c.51,.63,.77,1.53,.77,2.71s-.26,2.11-.77,2.76c-.51,.65-1.23,.97-2.15,.97Zm0-1.19c.21,0,.4-.04,.56-.11,.16-.08,.3-.2,.41-.38,.11-.18,.19-.42,.25-.73,.05-.31,.08-.69,.08-1.14v-.24c0-.48-.02-.87-.07-1.18-.05-.3-.13-.54-.23-.72-.11-.18-.24-.3-.41-.37-.16-.07-.36-.1-.58-.1s-.43,.03-.59,.1c-.17,.07-.3,.19-.41,.36-.11,.17-.19,.41-.24,.7s-.08,.67-.08,1.14v.25c0,.47,.03,.86,.08,1.18,.05,.31,.14,.56,.25,.74,.11,.18,.25,.31,.41,.39,.16,.08,.36,.11,.58,.11Z"/><path class="cls-1" d="M85.23,69.76c.15-.07,.3-.12,.45-.16,.15-.04,.32-.05,.51-.05,.21,0,.39,.02,.53,.07,.14,.05,.25,.1,.32,.15l-.27,1.4c-.12-.05-.26-.1-.41-.13-.15-.03-.34-.05-.57-.05s-.46,.04-.67,.11c-.21,.07-.41,.16-.6,.25v5.37h-1.56v-7.04h1.03l.51,1.02,.74-.95Z"/><path class="cls-1" d="M94,69.82c.16-.07,.34-.14,.53-.19,.19-.05,.41-.08,.65-.08,.61,0,1.08,.19,1.4,.56,.32,.37,.48,.94,.48,1.71v4.92h-1.56v-5.07c0-.31-.07-.53-.22-.66-.15-.13-.36-.19-.65-.19-.24,0-.45,.04-.64,.11-.18,.07-.38,.17-.59,.29v5.52h-1.56v-5.07c0-.31-.08-.53-.24-.66-.16-.13-.37-.19-.63-.19-.23,0-.44,.04-.64,.11-.19,.07-.39,.16-.59,.28v5.54h-1.56v-7.04h1.03l.51,.91,.68-.78c.14-.07,.31-.14,.5-.19,.19-.05,.41-.08,.66-.08,.27,0,.5,.02,.69,.07,.19,.05,.36,.11,.51,.2l.53,.84,.71-.84Z"/><path class="cls-1" d="M102.06,71.85c0-.29-.07-.52-.21-.7-.14-.18-.4-.27-.8-.27-.31,0-.64,.04-.99,.13-.35,.08-.73,.2-1.15,.34l-.21-1.18c.29-.14,.65-.28,1.08-.41,.42-.13,.9-.2,1.42-.2,.44,0,.81,.05,1.11,.15,.3,.1,.55,.27,.75,.49,.19,.23,.33,.52,.42,.88,.09,.36,.13,.8,.13,1.32v3.09c0,.17,.03,.28,.1,.33,.07,.05,.17,.08,.3,.08h.32l.03,.7c-.07,.07-.18,.14-.33,.21-.15,.07-.35,.1-.59,.1s-.49-.04-.73-.11l-.58-.79-.53,.67c-.13,.06-.3,.12-.5,.17-.2,.05-.44,.08-.73,.08-.26,0-.5-.04-.74-.11-.24-.07-.44-.19-.63-.35s-.33-.37-.43-.62c-.11-.25-.16-.57-.16-.94s.05-.69,.15-.94c.1-.25,.25-.47,.46-.64,.21-.17,.48-.31,.81-.42,.33-.11,.73-.19,1.2-.25l1.03-.13v-.67Zm0,1.56l-.92,.13c-.44,.06-.76,.18-.95,.34-.19,.16-.29,.45-.29,.85v.11c0,.37,.09,.63,.27,.79,.18,.16,.44,.24,.78,.24,.28,0,.51-.04,.68-.13,.17-.09,.31-.2,.43-.32v-2.01Z"/><path class="cls-1" d="M107.48,76.9c-.62,0-1.08-.17-1.36-.52-.29-.35-.43-.87-.43-1.56v-4.02h-.82v-1.1h.94l.75-1.91h.7v1.91h1.51v1.1h-1.51v4.38c0,.23,.05,.39,.14,.47,.09,.08,.27,.12,.53,.12h.96l.08,.84c-.15,.07-.36,.14-.61,.2-.26,.06-.55,.09-.87,.09Z"/><path class="cls-1" d="M111.06,68.71c-.26,0-.48-.08-.66-.23-.18-.16-.27-.38-.27-.66s.09-.49,.27-.66c.18-.16,.4-.24,.66-.24s.47,.08,.65,.24c.18,.16,.27,.38,.27,.66s-.09,.51-.27,.66c-.18,.16-.4,.23-.65,.23Zm-.79,.99h1.56v7.04h-1.56v-7.04Z"/><path class="cls-1" d="M116.26,76.93c-.94,0-1.66-.32-2.17-.96-.51-.64-.77-1.55-.77-2.73s.26-2.11,.78-2.74c.52-.63,1.24-.95,2.16-.95s1.63,.31,2.15,.94c.51,.63,.77,1.53,.77,2.71s-.26,2.11-.77,2.76c-.51,.65-1.23,.97-2.15,.97Zm0-1.19c.21,0,.4-.04,.56-.11,.16-.08,.3-.2,.41-.38,.11-.18,.19-.42,.25-.73,.05-.31,.08-.69,.08-1.14v-.24c0-.48-.02-.87-.07-1.18-.05-.3-.13-.54-.23-.72-.11-.18-.24-.3-.41-.37-.16-.07-.36-.1-.58-.1s-.43,.03-.59,.1c-.16,.07-.3,.19-.41,.36-.11,.17-.19,.41-.24,.7s-.08,.67-.08,1.14v.25c0,.47,.03,.86,.08,1.18,.05,.31,.14,.56,.25,.74,.11,.18,.25,.31,.41,.39,.16,.08,.36,.11,.58,.11Z"/><path class="cls-1" d="M122.85,69.82c.15-.07,.33-.14,.53-.19,.2-.05,.42-.08,.66-.08,.61,0,1.09,.19,1.42,.56,.33,.37,.49,.94,.49,1.71v4.92h-1.56v-5.07c0-.31-.08-.53-.23-.66-.16-.13-.38-.19-.66-.19-.26,0-.49,.04-.68,.11-.2,.07-.41,.17-.64,.29v5.52h-1.56v-7.04h1.03l.51,.93,.71-.81Z"/><path class="cls-1" d="M135.32,68.04h1.71v8.7h-1.12l-.4-.9-.56,.82c-.12,.04-.31,.1-.57,.17-.25,.07-.56,.1-.93,.1-.4,0-.77-.06-1.1-.18-.33-.12-.61-.32-.85-.59-.24-.28-.42-.63-.54-1.07-.12-.44-.19-.97-.19-1.6v-5.44h1.71v5.84c0,.68,.1,1.14,.31,1.4,.2,.25,.54,.38,1.01,.38,.36,0,.66-.04,.89-.12,.23-.08,.44-.17,.63-.27v-7.23Z"/><path class="cls-1" d="M141.22,69.82c.15-.07,.33-.14,.53-.19,.2-.05,.42-.08,.66-.08,.61,0,1.09,.19,1.42,.56,.33,.37,.49,.94,.49,1.71v4.92h-1.56v-5.07c0-.31-.08-.53-.23-.66-.16-.13-.38-.19-.66-.19-.26,0-.49,.04-.68,.11-.2,.07-.41,.17-.64,.29v5.52h-1.56v-7.04h1.03l.51,.93,.71-.81Z"/><path class="cls-1" d="M146.19,67.14h1.56v9.6h-1.56v-9.6Z"/><path class="cls-1" d="M150.98,74.66c.06,.25,.15,.45,.27,.61,.12,.16,.28,.27,.47,.33,.2,.06,.43,.09,.71,.09,.34,0,.66-.04,.97-.13,.31-.09,.61-.19,.9-.31l.21,1.15c-.21,.12-.5,.23-.89,.35-.39,.12-.82,.18-1.3,.18-1.02,0-1.79-.31-2.3-.94-.51-.62-.76-1.55-.76-2.77s.26-2.14,.78-2.75,1.22-.92,2.11-.92c.47,0,.87,.08,1.2,.23,.33,.15,.6,.37,.81,.66,.21,.29,.36,.64,.46,1.05,.1,.41,.15,.87,.15,1.39v.84h-3.89c0,.37,.04,.69,.1,.94Zm2.32-1.99v-.24c0-.65-.09-1.1-.27-1.36-.18-.26-.47-.39-.87-.39-.21,0-.38,.03-.53,.09-.15,.06-.28,.17-.39,.32-.11,.15-.19,.35-.24,.61-.05,.25-.09,.58-.11,.97h2.41Z"/><path class="cls-1" d="M159.43,71.85c0-.29-.07-.52-.21-.7-.14-.18-.4-.27-.8-.27-.31,0-.64,.04-.99,.13-.35,.08-.73,.2-1.15,.34l-.21-1.18c.29-.14,.65-.28,1.08-.41,.42-.13,.9-.2,1.42-.2,.44,0,.81,.05,1.11,.15,.3,.1,.55,.27,.75,.49,.19,.23,.33,.52,.42,.88,.09,.36,.13,.8,.13,1.32v3.09c0,.17,.03,.28,.1,.33,.07,.05,.17,.08,.3,.08h.32l.03,.7c-.07,.07-.18,.14-.33,.21-.15,.07-.35,.1-.59,.1s-.49-.04-.73-.11l-.58-.79-.53,.67c-.13,.06-.3,.12-.5,.17-.2,.05-.44,.08-.73,.08-.26,0-.5-.04-.74-.11-.24-.07-.44-.19-.63-.35s-.33-.37-.43-.62c-.11-.25-.16-.57-.16-.94s.05-.69,.15-.94c.1-.25,.25-.47,.46-.64,.21-.17,.48-.31,.81-.42,.33-.11,.73-.19,1.2-.25l1.03-.13v-.67Zm0,1.56l-.92,.13c-.44,.06-.76,.18-.95,.34-.19,.16-.29,.45-.29,.85v.11c0,.37,.09,.63,.27,.79,.18,.16,.44,.24,.78,.24,.28,0,.51-.04,.68-.13,.17-.09,.31-.2,.43-.32v-2.01Z"/><path class="cls-1" d="M164.67,76.93c-.51,0-.93-.05-1.28-.15-.34-.1-.62-.2-.82-.31l.16-1.11c.23,.1,.49,.19,.78,.27,.29,.08,.61,.13,.97,.13,.43,0,.74-.07,.95-.21,.2-.14,.31-.38,.31-.72,0-.18-.02-.32-.07-.41-.05-.1-.13-.18-.25-.25-.12-.07-.27-.12-.47-.17-.2-.05-.45-.11-.76-.19-.25-.06-.48-.14-.68-.24-.21-.1-.38-.23-.53-.39-.15-.16-.27-.36-.35-.6-.08-.24-.13-.53-.13-.87,0-.75,.23-1.3,.68-1.64,.45-.35,1.05-.52,1.8-.52,.45,0,.85,.04,1.18,.13,.33,.09,.6,.18,.81,.29l-.23,1.15c-.27-.09-.53-.16-.78-.21-.25-.05-.53-.08-.84-.08-.43,0-.73,.06-.92,.17-.18,.11-.27,.33-.27,.66,0,.16,.02,.29,.07,.39,.05,.1,.13,.18,.25,.24,.12,.06,.27,.12,.45,.17,.19,.05,.42,.11,.7,.18,.29,.07,.56,.16,.79,.26,.23,.1,.42,.24,.57,.4,.15,.16,.27,.37,.35,.61,.08,.24,.12,.53,.12,.87,0,.66-.21,1.18-.63,1.58-.42,.4-1.06,.59-1.92,.59Z"/><path class="cls-1" d="M170.16,76.74h-1.56v-9.6h1.56v3.46l.68-.78c.15-.07,.33-.14,.53-.19,.2-.05,.42-.08,.66-.08,.61,0,1.09,.19,1.42,.56,.33,.37,.49,.94,.49,1.71v4.92h-1.56v-5.07c0-.31-.08-.53-.23-.66-.16-.13-.38-.19-.66-.19-.26,0-.49,.04-.68,.11-.2,.07-.41,.17-.64,.29v5.52Z"/><path class="cls-1" d="M177.04,74.66c.06,.25,.15,.45,.27,.61,.12,.16,.28,.27,.47,.33,.2,.06,.43,.09,.71,.09,.34,0,.66-.04,.97-.13,.31-.09,.61-.19,.9-.31l.21,1.15c-.21,.12-.5,.23-.89,.35-.39,.12-.82,.18-1.3,.18-1.02,0-1.79-.31-2.3-.94-.51-.62-.76-1.55-.76-2.77s.26-2.14,.78-2.75,1.22-.92,2.11-.92c.47,0,.87,.08,1.2,.23,.33,.15,.6,.37,.81,.66,.21,.29,.36,.64,.46,1.05,.1,.41,.15,.87,.15,1.39v.84h-3.89c0,.37,.04,.69,.1,.94Zm2.32-1.99v-.24c0-.65-.09-1.1-.27-1.36-.18-.26-.47-.39-.87-.39-.21,0-.38,.03-.53,.09-.15,.06-.28,.17-.39,.32-.11,.15-.19,.35-.24,.61-.05,.25-.09,.58-.11,.97h2.41Z"/><path class="cls-1" d="M185.99,67.14h1.56v9.6h-1.04l-.45-.82-.71,.8c-.09,.04-.21,.08-.37,.12-.16,.04-.32,.05-.5,.05-.86,0-1.52-.31-1.95-.92-.44-.61-.66-1.53-.66-2.74,0-.67,.07-1.24,.21-1.7,.14-.47,.33-.85,.57-1.14,.24-.29,.51-.51,.82-.64,.31-.13,.64-.2,.99-.2s.64,.05,.89,.16c.25,.1,.46,.23,.63,.37v-2.93Zm0,4.08c-.12-.1-.29-.19-.48-.27-.2-.08-.43-.13-.71-.13-.21,0-.4,.03-.56,.09-.16,.06-.3,.16-.41,.32-.11,.16-.2,.37-.25,.64-.06,.27-.09,.62-.09,1.05v.72c0,.82,.11,1.4,.34,1.73,.23,.34,.55,.51,.98,.51,.25,0,.46-.05,.64-.16,.17-.11,.35-.25,.54-.43v-4.07Z"/></g></g></g></svg>